<svg width="1200" height="800" viewBox="0 0 1200 800" fill="none" xmlns="http://www.w3.org/2000/svg">
  <rect width="1200" height="800" rx="40" fill="url(#bg)"/>
  <rect x="74" y="74" width="1052" height="652" rx="28" fill="rgba(255,255,255,0.08)" stroke="rgba(255,255,255,0.18)"/>
  <rect x="120" y="128" width="160" height="160" rx="30" fill="rgba(255,255,255,0.94)"/>
  <path d="M160 164L210 158V210H160V164ZM218 157L268 151V210H218V157ZM160 218H210V270L160 262V218ZM218 218H268V278L218 270V218Z" fill="#145AFF"/>
  <rect x="304" y="128" width="160" height="160" rx="30" fill="rgba(255,255,255,0.94)"/>
  <path d="M350 190L404 166L444 190V234L404 258L350 234V190Z" fill="#F05A28"/>
  <text x="120" y="428" fill="white" font-size="74" font-family="Arial, sans-serif" font-weight="700">Combo Windows + Office</text>
  <text x="120" y="500" fill="#E8F6FF" font-size="30" font-family="Arial, sans-serif">Bo doi ban quyen danh cho may moi, van phong moi va nguoi mua tron goi</text>
  <rect x="120" y="556" width="332" height="60" rx="30" fill="rgba(255,255,255,0.94)"/>
  <text x="158" y="596" fill="#0F766E" font-size="28" font-family="Arial, sans-serif" font-weight="700">Tiet kiem hon mua le</text>
  <defs>
    <linearGradient id="bg" x1="96" y1="78" x2="1062" y2="714" gradientUnits="userSpaceOnUse">
      <stop stop-color="#0F766E"/>
      <stop offset="1" stop-color="#145AFF"/>
    </linearGradient>
  </defs>
</svg>
